<svg xmlns="http://www.w3.org/2000/svg" viewBox="620.1 -12.8 249.5 249.5"><style>.cls-1{fill:#535587}.cls-3{fill:#ba2031}</style><path class="cls-1" d="M637.15,171.77c.77-.95,1.53-1.91,2.31-2.85.87-1.02,1.78-2.03,2.67-3.04,4.88-5.86,10.09-11.48,15.64-16.78,6.52-6.17,13.47-11.94,20.79-17.26,7.34-5.27,15.06-10.13,23.1-14.42,14.7-7.84,30.45-13.95,46.82-18.07l-13.63-11.96c-13.56,4.83-26.53,10.94-38.68,18.16-8.37,4.98-16.35,10.53-23.87,16.49-7.49,6-14.55,12.45-21.11,19.29-6.53,6.88-12.57,14.14-18.06,21.74-1.75,2.44-3.43,4.92-5.06,7.43,3.11.3,6.14.72,9.07,1.27Z"/><path class="cls-1" d="M756.78,106.64c-.72.14-1.44.27-2.16.41-17.35,3.43-34.16,9.2-49.89,17.01-7.86,3.91-15.43,8.37-22.68,13.26-7.22,4.93-14.11,10.32-20.61,16.12-5.47,4.93-10.64,10.17-15.51,15.67-.8.96-1.61,1.91-2.38,2.88-.26.33-.5.66-.76.99,3.15.79,6.2,1.72,9.12,2.81,5.09-5.17,10.46-10.04,16.1-14.58,6.46-5.13,13.25-9.84,20.29-14.09,7.07-4.2,14.38-7.97,21.91-11.19,15.07-6.44,30.94-10.89,47.06-13.12,2.2-.31,4.41-.57,6.62-.8l1.72-7.61-8.85-7.77Z"/><path class="cls-1" d="M713.62,143.27c-7.33,2.81-14.48,6.14-21.44,9.92-6.94,3.82-13.66,8.11-20.09,12.83-5.07,3.77-9.96,7.82-14.64,12.12,2.97,1.39,5.81,2.94,8.51,4.67,4.12-3.21,8.35-6.23,12.7-9.02,6.4-4.06,13.02-7.66,19.78-10.8,6.79-3.1,13.67-5.73,20.68-7.85,12.81-3.87,25.89-6.09,38.84-6.69l3.64-16.13c-.89.07-1.77.13-2.66.22-15.36,1.5-30.65,5.13-45.31,10.72Z"/><polygon class="cls-3" points="803.42 41.01 819.94 79.39 861.56 83.24 830.15 110.82 839.35 151.58 803.42 130.24 767.49 151.58 776.69 110.82 745.29 83.24 786.9 79.39 803.42 41.01"/></svg>